<svg id="Слой_1" data-name="Слой 1" xmlns="http://www.w3.org/2000/svg" viewBox="0 0 90 17"><defs><style>.cls-1{fill:#83b3d3;}</style></defs><title>four-stars</title><path class="cls-1" d="M9,10l2.1,6.5H18l-5.6,4L14.6,27,9,23,3.4,27l2.2-6.5L0,16.5H6.9Z" transform="translate(0 -10)"/><path class="cls-1" d="M33,10l2.1,6.5H42l-5.6,4L38.6,27,33,23l-5.6,4,2.2-6.5-5.6-4h6.9Z" transform="translate(0 -10)"/><path class="cls-1" d="M57,10l2.1,6.5H66l-5.6,4L62.6,27,57,23l-5.6,4,2.2-6.5-5.6-4h6.9Z" transform="translate(0 -10)"/><path class="cls-1" d="M81,10l2.1,6.5H90l-5.6,4L86.6,27,81,23l-5.6,4,2.2-6.5-5.6-4h6.9Z" transform="translate(0 -10)"/></svg>