<?xml version="1.0" encoding="utf-8"?>
<!-- Generator: Adobe Illustrator 22.1.0, SVG Export Plug-In . SVG Version: 6.00 Build 0)  -->
<svg version="1.1" id="Слой_1" xmlns="http://www.w3.org/2000/svg" xmlns:xlink="http://www.w3.org/1999/xlink" x="0px" y="0px"
	 viewBox="0 0 25 15" style="enable-background:new 0 0 25 15;" xml:space="preserve">
<style type="text/css">
	.st0{fill:#83B3D3;}
</style>
<path class="st0" d="M23.9,1.4c0.2-0.5,0-0.9-0.8-0.9h-2.6c-0.7,0-1,0.3-1.1,0.7c0,0-1.3,3.2-3.2,5.3c-0.6,0.6-0.9,0.8-1.2,0.8
	c-0.2,0-0.4-0.2-0.4-0.7V1.4c0-0.7-0.2-0.9-0.7-0.9H9.7C9.2,0.5,9,0.8,9,1.1c0,0.6,0.9,0.8,1,2.5v3.8c0,0.8-0.2,1-0.5,1
	c-0.9,0-3.1-3.2-4.3-6.9c-0.2-0.7-0.5-1-1.2-1H1.4c-0.7,0-0.9,0.3-0.9,0.7c0,0.7,0.9,4.1,4.1,8.6c2.2,3.1,5.2,4.7,8,4.7
	c1.7,0,1.9-0.4,1.9-1v-2.3c0-0.7,0.2-0.9,0.7-0.9c0.4,0,1.1,0.2,2.6,1.7c1.8,1.7,2.1,2.5,3.1,2.5h2.6c0.8,0,1.1-0.4,0.9-1.1
	c-0.2-0.7-1.1-1.8-2.2-3c-0.6-0.7-1.5-1.5-1.8-1.9c-0.4-0.5-0.3-0.7,0-1.1C20.4,7.4,23.6,3,23.9,1.4L23.9,1.4z"/>
</svg>
